<svg width="48" height="48" viewBox="0 0 48 48" fill="none" xmlns="http://www.w3.org/2000/svg">
<path d="M16.3637 22.0909C19.9786 22.0909 22.9091 19.1604 22.9091 15.5454C22.9091 11.9305 19.9786 8.99997 16.3637 8.99997C12.7487 8.99997 9.81824 11.9305 9.81824 15.5454C9.81824 19.1604 12.7487 22.0909 16.3637 22.0909Z" fill="#3377FF"/>
<path d="M28.7273 33.4442C28.7273 38.1081 19.9968 38.8182 16.3621 38.8182C12.7275 38.8182 4 38.1081 4 33.4442C4 28.7803 9.53234 25 16.3621 25C23.1919 25 28.7273 28.7803 28.7273 33.4442Z" fill="#3377FF"/>
<path d="M31.6364 22.0909C35.2513 22.0909 38.1818 19.1604 38.1818 15.5454C38.1818 11.9305 35.2513 8.99997 31.6364 8.99997C28.0214 8.99997 25.0909 11.9305 25.0909 15.5454C25.0909 19.1604 28.0214 22.0909 31.6364 22.0909Z" fill="#1B1D1F"/>
<path d="M44 33.4442C44 38.1081 35.2695 38.8182 31.6348 38.8182C28.0002 38.8182 19.2727 38.1081 19.2727 33.4442C19.2727 28.7803 24.805 25 31.6348 25C38.4646 25 44 28.7803 44 33.4442Z" fill="#1B1D1F"/>
</svg>
