<svg width="50" height="48" viewBox="0 0 50 48" fill="none" xmlns="http://www.w3.org/2000/svg">
<g clip-path="url(#clip0_62_3548)">
<path d="M0 46.8099V28.4099C0 28.1499 0.21 27.9399 0.47 27.9399H6.88C7.25 27.9399 7.49 28.3599 7.28 28.6699C6.88 29.2399 6.67 29.9499 6.76 30.7199C6.92 32.0399 8 33.1199 9.32 33.2699C11.1 33.4799 12.61 32.0899 12.61 30.3599C12.61 29.7399 12.42 29.1699 12.09 28.6899C11.87 28.3699 12.08 27.9399 12.47 27.9399H18.88C19.14 27.9399 19.35 28.1499 19.35 28.4099V34.8199C19.35 35.1899 19.77 35.4299 20.08 35.2199C20.65 34.8199 21.36 34.6099 22.13 34.6999C23.45 34.8599 24.53 35.9399 24.68 37.2599C24.89 39.0399 23.5 40.5499 21.77 40.5499C21.15 40.5499 20.58 40.3599 20.1 40.0299C19.78 39.8099 19.35 40.0199 19.35 40.4099V46.8199C19.35 47.0799 19.14 47.2899 18.88 47.2899H0.47C0.21 47.2899 0 47.0799 0 46.8199V46.8099Z" fill="#CCDDFF"/>
<path d="M38.24 47.28H19.84C19.58 47.28 19.37 47.07 19.37 46.81V40.4C19.37 40.03 19.79 39.79 20.1 40C20.67 40.4 21.38 40.61 22.15 40.52C23.47 40.36 24.55 39.28 24.7 37.96C24.91 36.18 23.52 34.67 21.79 34.67C21.17 34.67 20.6 34.86 20.12 35.19C19.8 35.41 19.37 35.2 19.37 34.81V28.4C19.37 28.14 19.58 27.93 19.84 27.93H26.25C26.62 27.93 26.86 27.51 26.65 27.2C26.25 26.63 26.04 25.92 26.13 25.15C26.29 23.83 27.37 22.75 28.69 22.6C30.47 22.39 31.98 23.78 31.98 25.51C31.98 26.13 31.79 26.7 31.46 27.18C31.24 27.5 31.45 27.93 31.84 27.93H38.25C38.51 27.93 38.72 28.14 38.72 28.4V46.8C38.72 47.06 38.51 47.27 38.25 47.27L38.24 47.28Z" fill="#3377FF"/>
<path d="M0.47 8.56995H18.87C19.13 8.56995 19.34 8.77995 19.34 9.03995V15.4499C19.34 15.8199 18.92 16.0599 18.61 15.8499C18.04 15.4499 17.33 15.2399 16.56 15.3299C15.24 15.4899 14.16 16.5699 14.01 17.8899C13.8 19.6699 15.19 21.1799 16.92 21.1799C17.54 21.1799 18.11 20.9899 18.59 20.6599C18.91 20.4399 19.34 20.6499 19.34 21.0399V27.4499C19.34 27.7099 19.13 27.9199 18.87 27.9199H12.46C12.09 27.9199 11.85 28.3399 12.06 28.6499C12.46 29.2199 12.67 29.9299 12.58 30.6999C12.42 32.0199 11.34 33.0999 10.02 33.2499C8.24 33.4599 6.73 32.0699 6.73 30.3399C6.73 29.7199 6.92 29.1499 7.25 28.6699C7.47 28.3499 7.26 27.9199 6.87 27.9199H0.47C0.21 27.9199 0 27.7099 0 27.4499V9.03995C0 8.77995 0.21 8.56995 0.47 8.56995Z" fill="#3377FF"/>
<path d="M49.95 8.68002L41.95 25.25C41.84 25.48 41.55 25.58 41.32 25.47L35.55 22.68C35.21 22.52 35.18 22.03 35.51 21.85C36.12 21.51 36.61 20.96 36.86 20.23C37.29 18.97 36.79 17.53 35.67 16.82C34.16 15.86 32.2 16.45 31.44 18.01C31.17 18.57 31.09 19.17 31.18 19.74C31.24 20.12 30.86 20.42 30.51 20.25L24.74 17.46C24.51 17.35 24.41 17.06 24.52 16.83L27.31 11.06C27.47 10.72 27.2 10.32 26.83 10.39C26.15 10.5 25.41 10.38 24.76 9.96002C23.64 9.25002 23.14 7.80002 23.57 6.55002C24.16 4.86002 26.06 4.10002 27.62 4.86002C28.18 5.13002 28.61 5.55002 28.89 6.05002C29.08 6.39002 29.56 6.39002 29.73 6.04002L32.52 0.27002C32.63 0.0400202 32.92 -0.0599798 33.15 0.0500202L49.72 8.05002C49.95 8.16002 50.05 8.45002 49.94 8.68002H49.95Z" fill="#24282D"/>
</g>
<defs>
<clipPath id="clip0_62_3548">
<rect width="50" height="47.28" fill="white"/>
</clipPath>
</defs>
</svg>
