<svg width="315" height="72" viewBox="0 0 315 72" fill="none" xmlns="http://www.w3.org/2000/svg">
<g clip-path="url(#clip0_60_2198)">
<path d="M138.723 50.6996H92.6611C90.7811 50.6996 89.8392 51.615 89.8392 53.4496V57.5425C89.8392 59.4717 90.8038 60.4363 92.733 60.4363H131.037V69.2538C131.037 70.9938 132.001 71.8638 133.93 71.8638H139.222C140.962 71.8638 141.833 70.9938 141.833 69.2538V53.5934C141.833 51.6642 140.8 50.6996 138.727 50.6996H138.723Z" fill="#1B1D1F"/>
<path d="M150.911 40.3993C160.644 40.3993 172.873 39.1775 187.592 36.7301V37.7174C187.592 39.6466 188.556 40.6111 190.486 40.6111H196.129C198.059 40.6111 199.023 39.7184 199.023 37.9292V3.93026C199.023 2.28478 198.081 1.46015 196.201 1.46015H190.418C188.538 1.46015 187.596 2.28478 187.596 3.93026V26.7854C178.188 29.0436 168.69 30.3827 159.097 30.8064V25.3744H176.944C179.013 25.3744 180.049 24.2926 180.049 22.1289V18.7433C180.004 16.7196 178.99 15.7096 177.015 15.7096H159.097V12.5359H180.329C182.538 12.5359 183.643 11.4541 183.643 9.29035V5.90483C183.548 3.88108 182.466 2.8711 180.397 2.8711H151.686C149.617 2.8711 148.581 3.71843 148.581 5.4093V38.421C148.581 39.7373 149.356 40.3955 150.907 40.3955L150.911 40.3993Z" fill="#1B1D1F"/>
<path d="M196.058 43.0813H151.051C149.356 43.0813 148.513 43.9967 148.513 45.8313V49.6405C148.513 51.1914 149.405 51.9668 151.195 51.9668H187.947V54.4369H151.406C149.477 54.4369 148.513 55.3788 148.513 57.2588V69.0382C148.513 71.0128 149.545 72 151.618 72H196.553C198.248 72 199.091 71.2019 199.091 69.6018V65.229C199.091 63.6289 198.199 62.8535 196.409 62.9026H159.728V60.2207H196.693C198.293 60.2207 199.091 59.5398 199.091 58.1742V45.5476C199.091 43.9021 198.081 43.0775 196.058 43.0775V43.0813Z" fill="#1B1D1F"/>
<path d="M253.812 1.53202H248.24C246.216 1.53202 245.206 2.37935 245.206 4.07022V53.9414C236.366 57.2323 226.773 59.0897 216.424 59.5133V30.3789H236.317C238.386 30.3789 239.422 29.4143 239.422 27.4852V5.62112C239.422 3.83569 238.435 2.93919 236.461 2.93919H208.525C206.74 2.93919 205.843 3.88108 205.843 5.76108V10.6294C205.843 12.3695 206.853 13.2395 208.877 13.2395H228.982V20.3623H208.453C206.713 20.3623 205.843 21.1605 205.843 22.7606V67.4835C205.843 69.3635 206.713 70.3054 208.453 70.3054C219.552 70.3054 231.804 68.6599 245.206 65.3689V68.8944C245.206 70.869 246.216 71.8563 248.24 71.8563H253.6C255.529 71.8563 256.494 70.869 256.494 68.8944V4.28205C256.494 2.44743 255.601 1.53202 253.812 1.53202Z" fill="#1B1D1F"/>
<path d="M312.274 1.46015H305.783C304.182 1.46015 303.384 2.30748 303.384 3.99835V54.5769C295.297 57.4442 285.727 59.2107 274.674 59.8689V32.7809H291.249C293.413 32.7809 294.495 31.771 294.495 29.7472V25.5862C294.495 23.5171 293.341 22.4806 291.038 22.4806H274.674V13.2395H295.342C297.177 13.2395 298.092 12.2976 298.092 10.4176V5.4093C298.092 3.76382 297.245 2.93919 295.554 2.93919H266.208C264.328 2.93919 263.386 3.8546 263.386 5.68922V67.9071C263.386 69.5526 264.279 70.3773 266.068 70.3773C279.19 70.3773 291.605 68.5199 303.312 64.8053V69.6737C303.312 71.13 304.088 71.8601 305.639 71.8601H311.986C313.772 71.8601 314.668 71.0846 314.668 69.5337V3.85839C314.668 2.2583 313.87 1.46015 312.27 1.46015H312.274Z" fill="#1B1D1F"/>
<path d="M133.832 23.8235C133.564 23.3128 133.571 22.7 133.847 22.1931L142.411 6.58569C143.058 5.40927 142.627 3.93402 141.45 3.28717L136.238 0.42745C135.061 -0.219393 133.586 0.211836 132.939 1.38826L122.544 20.3283C121.671 21.9246 121.648 23.85 122.495 25.4652L126.096 32.3497C116.946 33.9687 108.359 34.9825 100.344 35.391V12.6078H119.813C121.883 12.6078 122.919 11.5259 122.919 9.3622V5.83672C122.919 3.90754 121.886 2.94295 119.813 2.94295H92.9373C90.8681 2.94295 89.8317 3.79027 89.8317 5.48114V43.0094C89.8317 44.2803 90.6071 44.9158 92.158 44.9158C101.335 44.9158 115.512 43.5162 130.798 41.345L133.136 45.8123C133.756 47.0001 135.224 47.4616 136.412 46.8375L141.677 44.0799C142.865 43.4595 143.327 41.9918 142.703 40.804L133.817 23.8235H133.832Z" fill="#1B1D1F"/>
<path d="M113.606 18.6942C112.796 18.6942 112.142 19.3977 112.142 20.2602V24.9886C112.142 25.8548 112.796 26.5546 113.606 26.5546H117.941C118.75 26.5546 119.405 25.8548 119.405 24.9886V20.2602C119.405 19.394 118.75 18.6942 117.941 18.6942H113.606Z" fill="#1B1D1F"/>
<path d="M71.8714 0H0V71.8714H71.8714V0Z" fill="#1B1D1F"/>
<path d="M46.9698 49.2622C34.6306 51.0136 24.2244 52.016 17.5895 52.016C16.659 52.016 15.8306 51.2708 15.8306 50.4916V22.1137C15.8306 20.9032 16.5568 20.3169 18.0548 20.3169H38.5344C40.0285 20.3169 40.7586 20.9902 40.7586 22.3823V25.068C40.7586 26.6378 40.0323 27.3981 38.5344 27.3981H23.5586V45.052L23.7062 45.0445C29.7887 44.7343 36.3933 43.955 43.346 42.7257L43.5389 42.6916L40.7056 37.2748C40.0815 36.087 40.0966 34.6723 40.7435 33.4959L48.6607 19.0648C48.8801 18.6639 49.2394 18.3726 49.6782 18.2478C50.117 18.1192 50.5785 18.1683 50.9795 18.3877L54.9475 20.5666C55.3485 20.786 55.6397 21.1453 55.7646 21.5841C55.8932 22.0229 55.8402 22.4844 55.6246 22.8854L49.0995 34.7782C48.8649 35.2057 48.8574 35.7201 49.0843 36.1551L55.8554 49.092C56.2904 49.9279 55.9688 50.9606 55.1329 51.3956L51.1194 53.495C50.2834 53.93 49.2508 53.6085 48.8158 52.7725L46.9736 49.2584L46.9698 49.2622Z" fill="white"/>
<path d="M38.0728 33.3786V36.9797C38.0728 37.5585 37.6378 38.0313 37.1007 38.0313H33.7984C33.2612 38.0313 32.8224 37.5585 32.8224 36.9797V33.3786C32.8224 32.7998 33.2612 32.327 33.7984 32.327H37.1007C37.6378 32.327 38.0728 32.7998 38.0728 33.3786Z" fill="white"/>
</g>
<defs>
<clipPath id="clip0_60_2198">
<rect width="314.672" height="72" fill="none"/>
</clipPath>
</defs>
</svg>
