<svg width="54" height="49" viewBox="0 0 54 49" fill="none" xmlns="http://www.w3.org/2000/svg">
<path d="M38.081 28.5165C37.9651 30.6605 39.1551 32.7496 41.0541 33.7292C42.5838 34.5158 44.2104 34.5562 45.6214 34.0397C46.2971 33.7876 46.9628 34.4462 46.7745 35.149L43.4718 47.4747C43.3424 47.9579 42.8436 48.248 42.3634 48.1193L30.106 44.835C29.4163 44.6502 29.183 43.7402 29.7352 43.2855C30.7598 42.4301 31.4906 41.2042 31.7084 39.7277C32.0795 37.1907 30.6169 34.6519 28.2501 33.707C25.0624 32.4386 21.5877 34.2664 20.7214 37.4994C20.413 38.6502 20.4838 39.818 20.8508 40.8579C21.101 41.5652 20.494 42.2594 19.7781 42.0676L6.67389 38.5563C6.19372 38.4277 5.90678 37.9271 6.03625 37.4439L9.57196 24.2485C9.75792 23.5544 9.09225 22.8958 8.42523 23.1502C7.1775 23.6163 5.758 23.6408 4.37969 23.0926C2.01288 22.1477 0.561436 19.6025 0.932455 17.0654C1.43578 13.6505 4.74469 11.5334 7.95744 12.3942C9.10111 12.7007 10.0697 13.3463 10.7803 14.1864C11.2633 14.7584 12.1637 14.5759 12.3567 13.8555L15.6594 1.52983C15.7889 1.04664 16.2877 0.756571 16.7678 0.885231L28.999 4.16256C29.6974 4.3497 29.9308 5.25968 29.3738 5.7319C28.2132 6.71091 27.4299 8.16764 27.3587 9.89995C27.2713 12.0422 28.4684 14.1049 30.3785 15.0781C33.6903 16.7565 37.4877 14.9115 38.3987 11.5116C38.7071 10.3607 38.6451 9.19538 38.2693 8.1531C38.0191 7.44576 38.6262 6.75157 39.3421 6.94339L52.4375 10.4523C52.9177 10.581 53.2046 11.0816 53.0752 11.5648L49.5442 24.7426C49.3511 25.463 48.442 25.6431 47.9677 25.0735C47.2571 24.2334 46.2949 23.5989 45.1512 23.2925C41.7639 22.3848 38.2655 24.7901 38.07 28.523L38.081 28.5165Z" fill="#1B1D1F"/>
</svg>
